<?xml version="1.0" encoding="UTF-8"?> <svg xmlns="http://www.w3.org/2000/svg" width="524" height="121" viewBox="0 0 524 121" fill="none"> <path fill-rule="evenodd" clip-rule="evenodd" d="M110.29 0.552734C104.45 0.552734 99.7158 5.28688 99.7158 11.1267V109.494C99.7158 115.334 104.45 120.068 110.29 120.068C116.13 120.068 120.864 115.334 120.864 109.494V11.1267C120.864 5.28688 116.13 0.552734 110.29 0.552734ZM21.1994 115.538C27.5496 118.558 34.8903 120.068 43.2213 120.068C51.4941 120.068 58.7764 118.529 65.0684 115.451C71.3603 112.372 76.3124 107.551 79.9244 100.987C83.5365 94.3657 85.3425 85.9144 85.3425 75.6333V38.3307C85.3425 32.515 80.6279 27.8004 74.8122 27.8004C68.9965 27.8004 64.2819 32.515 64.2819 38.3307V75.0235C64.2819 83.2715 62.505 89.5737 58.9512 93.9301C55.3974 98.2865 50.125 100.465 43.1339 100.465C36.1428 100.465 30.8413 98.3155 27.2292 94.0172C23.6754 89.6609 21.8985 83.3296 21.8985 75.0235V38.287C21.8985 32.4954 17.2035 27.8004 11.4119 27.8004C5.62031 27.8004 0.925293 32.4954 0.925293 38.287V75.6333C0.925293 85.9144 2.73132 94.3657 6.34337 100.987C9.95543 107.609 14.9074 112.459 21.1994 115.538ZM165.602 119.774C157.038 119.774 149.931 117.421 144.28 112.717C138.629 107.954 135.803 98.9504 135.803 85.7071V45.9229V27.8004V11.2126C135.803 5.40669 140.484 0.686758 146.29 0.63892C152.164 0.590522 156.951 5.33865 156.951 11.2126V27.8004H174.805C179.81 27.8004 183.867 31.8572 183.867 36.8616C183.867 41.866 179.81 45.9229 174.805 45.9229H156.951V86.6655C156.951 97.0627 161.291 102.261 169.972 102.261H175.11C179.946 102.261 183.867 106.182 183.867 111.018C183.867 115.854 179.946 119.774 175.11 119.774H165.602ZM198.46 21.5081C200.848 23.7734 203.171 24.9061 207.133 24.9061C211.269 24.9061 213.679 23.7734 216.068 21.5081C218.457 19.2428 219.651 16.3386 219.651 12.7954C219.651 9.36837 218.457 6.52221 216.068 4.25689C213.679 1.9335 211.298 0.771798 207.22 0.771798C203.2 0.771798 200.848 1.9335 198.46 4.25689C196.129 6.52221 194.964 9.36837 194.964 12.7954C194.964 16.2805 196.129 19.1847 198.46 21.5081ZM207.308 27.8004C201.468 27.8004 196.734 32.5345 196.734 38.3744V109.494C196.734 115.334 201.468 120.068 207.308 120.068C213.147 120.068 217.882 115.334 217.882 109.494V38.3744C217.882 32.5345 213.147 27.8004 207.308 27.8004ZM344.287 25.0994C355.414 25.0994 363.804 28.875 369.455 36.426C375.164 43.977 378.019 54.868 378.019 69.0988V109.625C378.019 115.393 373.343 120.068 367.576 120.068C361.808 120.068 357.133 115.393 357.133 109.625V69.5344C357.133 60.9959 355.473 54.6937 352.152 50.6278C348.889 46.5618 344.229 44.5289 338.17 44.5289C334.383 44.5289 330.829 45.6906 327.508 48.014C324.188 50.2793 321.508 53.4739 319.469 57.598C317.488 61.722 316.497 66.3978 316.497 71.6255V109.625C316.497 115.393 311.822 120.068 306.054 120.068C300.287 120.068 295.611 115.393 295.611 109.625V69.5344C295.611 60.9959 293.951 54.6937 290.63 50.6278C287.368 46.5618 282.736 44.5289 276.736 44.5289C272.949 44.5289 269.395 45.6906 266.074 48.014C262.753 50.2793 260.074 53.4739 258.034 57.598C256.054 61.722 255.063 66.3978 255.063 71.6255V109.625C255.063 115.393 250.388 120.068 244.62 120.068C238.853 120.068 234.177 115.393 234.177 109.625V37.7681C234.177 32.2631 238.64 27.8004 244.145 27.8004C249.577 27.8004 254.009 32.1497 254.111 37.5807L254.189 41.7408C256.578 36.8616 260.336 32.8828 265.462 29.8043C270.589 26.6677 276.386 25.0994 282.853 25.0994C290.31 25.0994 296.544 26.8129 301.554 30.24C306.564 33.667 310.322 38.6913 312.827 45.313C316.614 38.5171 321.158 33.4637 326.46 30.1528C331.819 26.7839 337.762 25.0994 344.287 25.0994ZM407.947 113.708C414.414 117.948 421.609 120.068 429.532 120.068C436.814 120.068 443.281 118.5 448.932 115.363C454.642 112.227 458.953 107.87 461.866 102.294V110.019C461.866 115.569 466.365 120.068 471.915 120.068C477.466 120.068 481.965 115.569 481.965 110.019V37.8501C481.965 32.2998 477.466 27.8004 471.915 27.8004C466.365 27.8004 461.866 32.2998 461.866 37.8501V42.9606C458.953 37.3844 454.642 33.028 448.932 29.8914C443.281 26.6968 436.785 25.0994 429.445 25.0994C421.58 25.0994 414.414 27.2486 407.947 31.5469C401.539 35.7871 396.47 41.5375 392.742 48.7981C389.071 56.0587 387.236 63.9873 387.236 72.5839C387.236 81.2385 389.071 89.1962 392.742 96.4568C396.412 103.717 401.48 109.468 407.947 113.708ZM447.884 96.8924C443.864 99.332 439.436 100.552 434.601 100.552C429.823 100.552 425.425 99.4191 421.405 97.1538C417.385 94.8885 414.181 91.6357 411.792 87.3955C409.404 83.1553 408.209 78.2181 408.209 72.5839C408.209 67.1239 409.375 62.2738 411.705 58.0336C414.094 53.7934 417.298 50.5116 421.318 48.1882C425.337 45.8067 429.765 44.616 434.601 44.616C439.436 44.616 443.864 45.8648 447.884 48.3625C451.904 50.8601 455.079 54.2581 457.409 58.5564C459.798 62.7966 460.992 67.4724 460.992 72.5839C460.992 77.7534 459.827 82.4874 457.496 86.7857C455.166 91.0259 451.962 94.3948 447.884 96.8924ZM509.077 120.349C516.844 120.349 523.139 114.072 523.139 106.329C523.139 98.586 516.844 92.3091 509.077 92.3091C501.311 92.3091 495.015 98.586 495.015 106.329C495.015 114.072 501.311 120.349 509.077 120.349Z" fill="black"></path> </svg> 